<?xml version="1.0" encoding="UTF-8" standalone="no"?>
<!-- Created with Inkscape (http://www.inkscape.org/) -->

<svg
   width="499.99997mm"
   height="500.00003mm"
   viewBox="0 0 499.99997 500.00003"
   version="1.1"
   id="svg1"
   xml:space="preserve"
   xmlns:inkscape="http://www.inkscape.org/namespaces/inkscape"
   xmlns:sodipodi="http://sodipodi.sourceforge.net/DTD/sodipodi-0.dtd"
   xmlns="http://www.w3.org/2000/svg"
   xmlns:svg="http://www.w3.org/2000/svg"><sodipodi:namedview
     id="namedview1"
     pagecolor="#505050"
     bordercolor="#eeeeee"
     borderopacity="1"
     inkscape:showpageshadow="0"
     inkscape:pageopacity="0"
     inkscape:pagecheckerboard="0"
     inkscape:deskcolor="#505050"
     inkscape:document-units="mm"
     inkscape:zoom="0.13118254"
     inkscape:cx="-659.38651"
     inkscape:cy="4028.7373"
     inkscape:window-width="1920"
     inkscape:window-height="1009"
     inkscape:window-x="-8"
     inkscape:window-y="-8"
     inkscape:window-maximized="1"
     inkscape:current-layer="layer1" /><defs
     id="defs1" /><g
     inkscape:label="Calque 1"
     inkscape:groupmode="layer"
     id="layer1"
     transform="translate(30.453276,-502.01088)"><rect
       style="fill:#000000;fill-opacity:1;fill-rule:evenodd;stroke:#ffffff;stroke-width:12.7552;stroke-linecap:square;stroke-linejoin:miter;stroke-miterlimit:17.8;paint-order:fill markers stroke"
       id="rect1"
       width="487.24478"
       height="487.24478"
       x="-24.075676"
       y="508.38846"
       rx="0"
       ry="0" /><path
       style="fill:none;fill-opacity:1;fill-rule:evenodd;stroke:#ffffff;stroke-width:22.1036;stroke-linecap:square;stroke-linejoin:miter;stroke-miterlimit:17.8;paint-order:fill markers stroke"
       d="m 22.377834,600.76461 c 0,0 1.316697,197.28858 -1.053784,290.2467 -0.346239,13.5773 26.580574,28.64319 26.580574,28.64319 l 343.479066,0.67665 c 0,0 26.94903,-15.93827 27.20114,-29.99651 1.17056,-65.26786 -0.24844,-149.36887 0.82741,-212.90695 0.2399,-14.16773 -28.13197,-29.43256 -28.13197,-29.43256 0,0 -126.81374,1.19945 -195.68273,0.11091 -21.04096,-0.33278 -17.73389,-46.11871 -35.78555,-59.20364 -5.60833,-4.06534 -19.85784,-4.05962 -19.85784,-4.05962 0,0 -76.016116,-2.0332 -106.330438,0.10017 -11.347157,0.79797 -11.245878,15.822 -11.245878,15.822 z"
       id="path1"
       sodipodi:nodetypes="csccsscsacscc" /><path
       style="fill:none;fill-opacity:1;fill-rule:evenodd;stroke:#ffffff;stroke-width:13.2142;stroke-linecap:square;stroke-linejoin:miter;stroke-miterlimit:17.8;stroke-dasharray:none;paint-order:fill markers stroke"
       d="m 416.21207,615.97935 c 0,0 1.88129,-7.98542 0.397,-11.53264 -5.06824,-12.1141 -15.89945,-25.73326 -28.97962,-26.64466 -38.07765,-2.65263 -124.15284,-0.80943 -124.15284,-0.80943 0,0 -7.04734,3.76763 -10.62214,6.37696 -10.85895,7.92567 -27.20733,31.0192 -27.20733,31.0192 h 183.81624 z"
       id="path2"
       sodipodi:nodetypes="csscsccc" /><text
       xml:space="preserve"
       style="font-size:231.45px;font-family:'Tw Cen MT Condensed Extra Bold';-inkscape-font-specification:'Tw Cen MT Condensed Extra Bold, Normal';fill:none;fill-opacity:1;fill-rule:evenodd;stroke:#ffffff;stroke-width:3.03371;stroke-linecap:square;stroke-linejoin:miter;stroke-miterlimit:17.8;stroke-dasharray:none;paint-order:fill markers stroke"
       x="79.604622"
       y="978.08594"
       id="text2"
       transform="scale(1.1616709,0.86082901)"><tspan
         sodipodi:role="line"
         id="tspan2"
         style="fill:none;fill-opacity:1;stroke-width:3.0337"
         x="79.604622"
         y="978.08594">Kc</tspan></text></g></svg>
